<mxfile host="app.diagrams.net" modified="2022-02-16T06:56:24.489Z" agent="5.0 (Macintosh; Intel Mac OS X 10_15_7) AppleWebKit/537.36 (KHTML, like Gecko) Chrome/98.0.4758.80 Safari/537.36" etag="iuvdzXoZJLlBdqCTXQ4N" version="16.2.4" type="github">
  <diagram id="cFvQ9gRUfhQQDAV9hao1" name="第 1 页">
    <mxGraphModel dx="2253" dy="794" grid="1" gridSize="10" guides="1" tooltips="1" connect="1" arrows="1" fold="1" page="1" pageScale="1" pageWidth="827" pageHeight="1169" math="0" shadow="0">
      <root>
        <mxCell id="0" />
        <mxCell id="1" parent="0" />
        <mxCell id="3_Son70-72NIEvR5AZMl-36" value="&lt;font style=&quot;font-size: 23px&quot;&gt;&lt;b&gt;本体 Ontology&lt;/b&gt;&lt;/font&gt;" style="shape=parallelogram;perimeter=parallelogramPerimeter;whiteSpace=wrap;html=1;fixedSize=1;size=150;align=left;" vertex="1" parent="1">
          <mxGeometry x="-140" y="815" width="830" height="235" as="geometry" />
        </mxCell>
        <mxCell id="3_Son70-72NIEvR5AZMl-35" value="&lt;font style=&quot;font-size: 23px&quot;&gt;&lt;b&gt;描述 Description&lt;/b&gt;&lt;/font&gt;" style="shape=parallelogram;perimeter=parallelogramPerimeter;whiteSpace=wrap;html=1;fixedSize=1;size=150;align=left;" vertex="1" parent="1">
          <mxGeometry x="-140" y="180" width="830" height="235" as="geometry" />
        </mxCell>
        <mxCell id="3_Son70-72NIEvR5AZMl-34" value="&lt;font size=&quot;1&quot;&gt;&lt;b style=&quot;font-size: 23px&quot;&gt;实体 Instance&lt;/b&gt;&lt;/font&gt;" style="shape=parallelogram;perimeter=parallelogramPerimeter;whiteSpace=wrap;html=1;fixedSize=1;size=150;align=left;" vertex="1" parent="1">
          <mxGeometry x="-140" y="495" width="830" height="235" as="geometry" />
        </mxCell>
        <mxCell id="3_Son70-72NIEvR5AZMl-26" style="edgeStyle=none;rounded=0;orthogonalLoop=1;jettySize=auto;html=1;entryX=0.5;entryY=1;entryDx=0;entryDy=0;dashed=1;startArrow=none;startFill=0;" edge="1" parent="1" source="3_Son70-72NIEvR5AZMl-2" target="3_Son70-72NIEvR5AZMl-8">
          <mxGeometry relative="1" as="geometry" />
        </mxCell>
        <mxCell id="3_Son70-72NIEvR5AZMl-27" value="中文简称" style="edgeLabel;html=1;align=center;verticalAlign=middle;resizable=0;points=[];" vertex="1" connectable="0" parent="3_Son70-72NIEvR5AZMl-26">
          <mxGeometry x="-0.3575" y="-1" relative="1" as="geometry">
            <mxPoint as="offset" />
          </mxGeometry>
        </mxCell>
        <mxCell id="3_Son70-72NIEvR5AZMl-28" value="英文简称" style="edgeStyle=none;rounded=0;orthogonalLoop=1;jettySize=auto;html=1;entryX=0.5;entryY=1;entryDx=0;entryDy=0;dashed=1;startArrow=none;startFill=0;" edge="1" parent="1" source="3_Son70-72NIEvR5AZMl-2" target="3_Son70-72NIEvR5AZMl-17">
          <mxGeometry x="-0.0823" y="4" relative="1" as="geometry">
            <Array as="points">
              <mxPoint x="420" y="450" />
            </Array>
            <mxPoint as="offset" />
          </mxGeometry>
        </mxCell>
        <mxCell id="3_Son70-72NIEvR5AZMl-2" value="苹果公司" style="ellipse;whiteSpace=wrap;html=1;" vertex="1" parent="1">
          <mxGeometry x="390" y="530" width="120" height="80" as="geometry" />
        </mxCell>
        <mxCell id="3_Son70-72NIEvR5AZMl-37" style="rounded=0;orthogonalLoop=1;jettySize=auto;html=1;entryX=0.5;entryY=1;entryDx=0;entryDy=0;dashed=1;startArrow=none;startFill=0;" edge="1" parent="1" source="3_Son70-72NIEvR5AZMl-4" target="3_Son70-72NIEvR5AZMl-7">
          <mxGeometry relative="1" as="geometry" />
        </mxCell>
        <mxCell id="3_Son70-72NIEvR5AZMl-4" value="水果" style="ellipse;whiteSpace=wrap;html=1;aspect=fixed;" vertex="1" parent="1">
          <mxGeometry x="30" y="860" width="80" height="80" as="geometry" />
        </mxCell>
        <mxCell id="3_Son70-72NIEvR5AZMl-15" style="edgeStyle=orthogonalEdgeStyle;rounded=0;orthogonalLoop=1;jettySize=auto;html=1;entryX=0;entryY=1;entryDx=0;entryDy=0;curved=1;" edge="1" parent="1" source="3_Son70-72NIEvR5AZMl-5" target="3_Son70-72NIEvR5AZMl-2">
          <mxGeometry relative="1" as="geometry" />
        </mxCell>
        <mxCell id="3_Son70-72NIEvR5AZMl-16" value="属于" style="edgeLabel;html=1;align=center;verticalAlign=middle;resizable=0;points=[];" vertex="1" connectable="0" parent="3_Son70-72NIEvR5AZMl-15">
          <mxGeometry x="-0.3312" y="24" relative="1" as="geometry">
            <mxPoint as="offset" />
          </mxGeometry>
        </mxCell>
        <mxCell id="3_Son70-72NIEvR5AZMl-29" style="edgeStyle=none;rounded=0;orthogonalLoop=1;jettySize=auto;html=1;entryX=0.5;entryY=1;entryDx=0;entryDy=0;dashed=1;startArrow=none;startFill=0;" edge="1" parent="1" source="3_Son70-72NIEvR5AZMl-5" target="3_Son70-72NIEvR5AZMl-8">
          <mxGeometry relative="1" as="geometry" />
        </mxCell>
        <mxCell id="3_Son70-72NIEvR5AZMl-30" value="中文简称" style="edgeLabel;html=1;align=center;verticalAlign=middle;resizable=0;points=[];" vertex="1" connectable="0" parent="3_Son70-72NIEvR5AZMl-29">
          <mxGeometry x="-0.2848" y="1" relative="1" as="geometry">
            <mxPoint as="offset" />
          </mxGeometry>
        </mxCell>
        <mxCell id="3_Son70-72NIEvR5AZMl-32" style="edgeStyle=none;rounded=0;orthogonalLoop=1;jettySize=auto;html=1;entryX=0.5;entryY=1;entryDx=0;entryDy=0;dashed=1;startArrow=none;startFill=0;" edge="1" parent="1" source="3_Son70-72NIEvR5AZMl-5" target="3_Son70-72NIEvR5AZMl-17">
          <mxGeometry relative="1" as="geometry" />
        </mxCell>
        <mxCell id="3_Son70-72NIEvR5AZMl-33" value="英文简称" style="edgeLabel;html=1;align=center;verticalAlign=middle;resizable=0;points=[];" vertex="1" connectable="0" parent="3_Son70-72NIEvR5AZMl-32">
          <mxGeometry x="-0.3491" y="-2" relative="1" as="geometry">
            <mxPoint as="offset" />
          </mxGeometry>
        </mxCell>
        <mxCell id="3_Son70-72NIEvR5AZMl-5" value="苹果手机品牌" style="ellipse;whiteSpace=wrap;html=1;" vertex="1" parent="1">
          <mxGeometry x="170" y="620" width="120" height="80" as="geometry" />
        </mxCell>
        <mxCell id="3_Son70-72NIEvR5AZMl-11" style="edgeStyle=orthogonalEdgeStyle;rounded=0;orthogonalLoop=1;jettySize=auto;html=1;entryX=0;entryY=1;entryDx=0;entryDy=0;curved=1;" edge="1" parent="1" source="3_Son70-72NIEvR5AZMl-6" target="3_Son70-72NIEvR5AZMl-9">
          <mxGeometry relative="1" as="geometry">
            <Array as="points">
              <mxPoint x="407" y="980" />
            </Array>
          </mxGeometry>
        </mxCell>
        <mxCell id="3_Son70-72NIEvR5AZMl-12" value="属于" style="edgeLabel;html=1;align=center;verticalAlign=middle;resizable=0;points=[];" vertex="1" connectable="0" parent="3_Son70-72NIEvR5AZMl-11">
          <mxGeometry x="-0.1517" y="22" relative="1" as="geometry">
            <mxPoint as="offset" />
          </mxGeometry>
        </mxCell>
        <mxCell id="3_Son70-72NIEvR5AZMl-13" style="rounded=0;orthogonalLoop=1;jettySize=auto;html=1;entryX=0.5;entryY=1;entryDx=0;entryDy=0;dashed=1;" edge="1" parent="1" source="3_Son70-72NIEvR5AZMl-6" target="3_Son70-72NIEvR5AZMl-5">
          <mxGeometry relative="1" as="geometry" />
        </mxCell>
        <mxCell id="3_Son70-72NIEvR5AZMl-6" value="品牌" style="ellipse;whiteSpace=wrap;html=1;aspect=fixed;" vertex="1" parent="1">
          <mxGeometry x="190" y="940" width="80" height="80" as="geometry" />
        </mxCell>
        <mxCell id="3_Son70-72NIEvR5AZMl-19" style="rounded=0;orthogonalLoop=1;jettySize=auto;html=1;entryX=0.5;entryY=1;entryDx=0;entryDy=0;dashed=1;" edge="1" parent="1" source="3_Son70-72NIEvR5AZMl-7" target="3_Son70-72NIEvR5AZMl-8">
          <mxGeometry relative="1" as="geometry" />
        </mxCell>
        <mxCell id="3_Son70-72NIEvR5AZMl-20" value="在水果中的中文名称" style="edgeLabel;html=1;align=center;verticalAlign=middle;resizable=0;points=[];" vertex="1" connectable="0" parent="3_Son70-72NIEvR5AZMl-19">
          <mxGeometry x="0.1097" y="2" relative="1" as="geometry">
            <mxPoint y="43" as="offset" />
          </mxGeometry>
        </mxCell>
        <mxCell id="3_Son70-72NIEvR5AZMl-24" style="rounded=0;orthogonalLoop=1;jettySize=auto;html=1;entryX=0.5;entryY=1;entryDx=0;entryDy=0;dashed=1;startArrow=none;startFill=0;" edge="1" parent="1" source="3_Son70-72NIEvR5AZMl-7" target="3_Son70-72NIEvR5AZMl-17">
          <mxGeometry relative="1" as="geometry" />
        </mxCell>
        <mxCell id="3_Son70-72NIEvR5AZMl-25" value="在水果中的英文名称" style="edgeLabel;html=1;align=center;verticalAlign=middle;resizable=0;points=[];" vertex="1" connectable="0" parent="3_Son70-72NIEvR5AZMl-24">
          <mxGeometry x="-0.0169" y="1" relative="1" as="geometry">
            <mxPoint y="15" as="offset" />
          </mxGeometry>
        </mxCell>
        <mxCell id="3_Son70-72NIEvR5AZMl-7" value="具体的一个苹果(水果)" style="ellipse;whiteSpace=wrap;html=1;" vertex="1" parent="1">
          <mxGeometry x="10" y="530" width="120" height="80" as="geometry" />
        </mxCell>
        <mxCell id="3_Son70-72NIEvR5AZMl-22" style="edgeStyle=orthogonalEdgeStyle;curved=1;rounded=0;orthogonalLoop=1;jettySize=auto;html=1;entryX=0;entryY=0.5;entryDx=0;entryDy=0;dashed=1;startArrow=classicThin;startFill=1;" edge="1" parent="1" source="3_Son70-72NIEvR5AZMl-8" target="3_Son70-72NIEvR5AZMl-17">
          <mxGeometry relative="1" as="geometry" />
        </mxCell>
        <mxCell id="3_Son70-72NIEvR5AZMl-23" value="同义词" style="edgeLabel;html=1;align=center;verticalAlign=middle;resizable=0;points=[];" vertex="1" connectable="0" parent="3_Son70-72NIEvR5AZMl-22">
          <mxGeometry x="-0.2885" y="-1" relative="1" as="geometry">
            <mxPoint x="13" y="-1" as="offset" />
          </mxGeometry>
        </mxCell>
        <mxCell id="3_Son70-72NIEvR5AZMl-8" value="苹果" style="shape=parallelogram;perimeter=parallelogramPerimeter;whiteSpace=wrap;html=1;fixedSize=1;" vertex="1" parent="1">
          <mxGeometry x="110" y="250" width="120" height="60" as="geometry" />
        </mxCell>
        <mxCell id="3_Son70-72NIEvR5AZMl-14" style="edgeStyle=none;rounded=0;orthogonalLoop=1;jettySize=auto;html=1;entryX=0.5;entryY=1;entryDx=0;entryDy=0;dashed=1;" edge="1" parent="1" source="3_Son70-72NIEvR5AZMl-9" target="3_Son70-72NIEvR5AZMl-2">
          <mxGeometry relative="1" as="geometry" />
        </mxCell>
        <mxCell id="3_Son70-72NIEvR5AZMl-9" value="公司" style="ellipse;whiteSpace=wrap;html=1;aspect=fixed;" vertex="1" parent="1">
          <mxGeometry x="395" y="860" width="80" height="80" as="geometry" />
        </mxCell>
        <mxCell id="3_Son70-72NIEvR5AZMl-17" value="apple" style="shape=parallelogram;perimeter=parallelogramPerimeter;whiteSpace=wrap;html=1;fixedSize=1;" vertex="1" parent="1">
          <mxGeometry x="319" y="250" width="120" height="60" as="geometry" />
        </mxCell>
      </root>
    </mxGraphModel>
  </diagram>
</mxfile>
